<?xml version="1.0" standalone="no"?><svg xmlns="http://www.w3.org/2000/svg" viewBox="0 0 1440 320"><path fill="rgb(255, 136, 0)" fill-opacity="1" d="M0,96L30,96C60,96,120,96,180,106.7C240,117,300,139,360,170.7C420,203,480,245,540,240C600,235,660,181,720,181.3C780,181,840,235,900,266.7C960,299,1020,309,1080,314.7C1140,320,1200,320,1260,304C1320,288,1380,256,1410,240L1440,224L1440,320L1410,320C1380,320,1320,320,1260,320C1200,320,1140,320,1080,320C1020,320,960,320,900,320C840,320,780,320,720,320C660,320,600,320,540,320C480,320,420,320,360,320C300,320,240,320,180,320C120,320,60,320,30,320L0,320Z"></path></svg>