<?xml version="1.0" standalone="no"?>
<svg xmlns:xlink="http://www.w3.org/1999/xlink" id="wave" style="transform:rotate(0deg); transition: 0.3s" viewBox="0 0 1440 400" version="1.1" xmlns="http://www.w3.org/2000/svg"><defs><linearGradient id="sw-gradient-0" x1="0" x2="0" y1="1" y2="0"><stop stop-color="rgba(255, 163, 71, 1)" offset="0%"/><stop stop-color="rgba(255, 179, 11, 1)" offset="100%"/></linearGradient></defs><path style="transform:translate(0, 0px); opacity:1" fill="url(#sw-gradient-0)" d="M0,280L48,273.3C96,267,192,253,288,260C384,267,480,293,576,313.3C672,333,768,347,864,353.3C960,360,1056,360,1152,340C1248,320,1344,280,1440,226.7C1536,173,1632,107,1728,80C1824,53,1920,67,2016,66.7C2112,67,2208,53,2304,86.7C2400,120,2496,200,2592,213.3C2688,227,2784,173,2880,166.7C2976,160,3072,200,3168,226.7C3264,253,3360,267,3456,240C3552,213,3648,147,3744,160C3840,173,3936,267,4032,313.3C4128,360,4224,360,4320,340C4416,320,4512,280,4608,246.7C4704,213,4800,187,4896,166.7C4992,147,5088,133,5184,126.7C5280,120,5376,120,5472,120C5568,120,5664,120,5760,100C5856,80,5952,40,6048,73.3C6144,107,6240,213,6336,273.3C6432,333,6528,347,6624,340C6720,333,6816,307,6864,293.3L6912,280L6912,400L6864,400C6816,400,6720,400,6624,400C6528,400,6432,400,6336,400C6240,400,6144,400,6048,400C5952,400,5856,400,5760,400C5664,400,5568,400,5472,400C5376,400,5280,400,5184,400C5088,400,4992,400,4896,400C4800,400,4704,400,4608,400C4512,400,4416,400,4320,400C4224,400,4128,400,4032,400C3936,400,3840,400,3744,400C3648,400,3552,400,3456,400C3360,400,3264,400,3168,400C3072,400,2976,400,2880,400C2784,400,2688,400,2592,400C2496,400,2400,400,2304,400C2208,400,2112,400,2016,400C1920,400,1824,400,1728,400C1632,400,1536,400,1440,400C1344,400,1248,400,1152,400C1056,400,960,400,864,400C768,400,672,400,576,400C480,400,384,400,288,400C192,400,96,400,48,400L0,400Z"/></svg>